<svg xmlns="http://www.w3.org/2000/svg" viewBox="0 0 800 800">
  <defs>
    <radialGradient id="p1bg" cx="50%" cy="42%" r="72%">
      <stop offset="0%" stop-color="#2A2018"/>
      <stop offset="100%" stop-color="#0C0A08"/>
    </radialGradient>
    <linearGradient id="p1stick" x1="0%" y1="0%" x2="0%" y2="100%">
      <stop offset="0%" stop-color="#D4AA78"/>
      <stop offset="55%" stop-color="#B88C52"/>
      <stop offset="100%" stop-color="#8C6430"/>
    </linearGradient>
    <linearGradient id="p1ckA" x1="5%" y1="0%" x2="95%" y2="100%">
      <stop offset="0%" stop-color="#F6EACE"/>
      <stop offset="100%" stop-color="#DCCA8C"/>
    </linearGradient>
    <linearGradient id="p1ckB" x1="5%" y1="0%" x2="95%" y2="100%">
      <stop offset="0%" stop-color="#EDD8B2"/>
      <stop offset="100%" stop-color="#CCAF70"/>
    </linearGradient>
    <radialGradient id="p1vig" cx="50%" cy="50%" r="70%">
      <stop offset="55%" stop-color="rgba(0,0,0,0)"/>
      <stop offset="100%" stop-color="rgba(0,0,0,0.62)"/>
    </radialGradient>
    <filter id="p1sh" x="-10%" y="-10%" width="125%" height="125%">
      <feDropShadow dx="3" dy="9" stdDeviation="13" flood-color="#000" flood-opacity="0.68"/>
    </filter>
  </defs>

  <rect width="800" height="800" fill="url(#p1bg)"/>
  <ellipse cx="400" cy="432" rx="362" ry="332" fill="#0F0D0A" opacity="0.58"/>

  <!-- SKEWER 1 -->
  <g transform="translate(392,248) rotate(-18)" filter="url(#p1sh)">
    <rect x="-355" y="-8" width="710" height="17" fill="url(#p1stick)" rx="0"/>
    <rect x="-355" y="-8" width="24" height="17" fill="#503018"/>
    <rect x="331"  y="-8" width="24" height="17" fill="#6A4020"/>
    <line x1="-355" y1="1" x2="355" y2="1" stroke="#906835" stroke-width="1" opacity="0.28"/>
    <!-- piece 1 -->
    <g transform="translate(-270,0)">
      <rect x="-37" y="-48" width="74" height="96" fill="url(#p1ckA)" rx="5"/>
      <rect x="-27" y="-39" width="32" height="20" fill="#FAF0DC" rx="4" opacity="0.62"/>
      <line x1="-30" y1="8"  x2="32" y2="8"  stroke="#C8A860" stroke-width="1.5" opacity="0.32"/>
      <line x1="-28" y1="28" x2="30" y2="28" stroke="#C8A860" stroke-width="1.5" opacity="0.26"/>
    </g>
    <!-- piece 2 -->
    <g transform="translate(-100,0)">
      <rect x="-38" y="-50" width="76" height="100" fill="url(#p1ckB)" rx="5"/>
      <rect x="-28" y="-41" width="30" height="19" fill="#F8ECD8" rx="4" opacity="0.58"/>
      <line x1="-32" y1="7"  x2="34" y2="7"  stroke="#BF9B50" stroke-width="1.5" opacity="0.32"/>
      <line x1="-30" y1="28" x2="32" y2="28" stroke="#BF9B50" stroke-width="1.5" opacity="0.26"/>
    </g>
    <!-- piece 3 -->
    <g transform="translate(70,0)">
      <rect x="-37" y="-47" width="74" height="94" fill="url(#p1ckA)" rx="5"/>
      <rect x="-27" y="-38" width="33" height="20" fill="#FAF0DC" rx="4" opacity="0.62"/>
      <line x1="-30" y1="10" x2="32" y2="10" stroke="#C8A860" stroke-width="1.5" opacity="0.32"/>
      <line x1="-28" y1="30" x2="30" y2="30" stroke="#C8A860" stroke-width="1.5" opacity="0.26"/>
    </g>
    <!-- piece 4 -->
    <g transform="translate(238,0)">
      <rect x="-38" y="-49" width="76" height="98" fill="url(#p1ckB)" rx="5"/>
      <rect x="-28" y="-40" width="31" height="19" fill="#F8ECD8" rx="4" opacity="0.58"/>
      <line x1="-32" y1="9"  x2="34" y2="9"  stroke="#BF9B50" stroke-width="1.5" opacity="0.32"/>
      <line x1="-30" y1="29" x2="32" y2="29" stroke="#BF9B50" stroke-width="1.5" opacity="0.26"/>
    </g>
  </g>

  <!-- SKEWER 2 -->
  <g transform="translate(406,400) rotate(-18)" filter="url(#p1sh)">
    <rect x="-355" y="-8" width="710" height="17" fill="url(#p1stick)" rx="0"/>
    <rect x="-355" y="-8" width="24" height="17" fill="#503018"/>
    <rect x="331"  y="-8" width="24" height="17" fill="#6A4020"/>
    <line x1="-355" y1="1" x2="355" y2="1" stroke="#906835" stroke-width="1" opacity="0.28"/>
    <g transform="translate(-260,0)">
      <rect x="-38" y="-49" width="76" height="98" fill="url(#p1ckB)" rx="5"/>
      <rect x="-28" y="-40" width="30" height="20" fill="#F8ECD8" rx="4" opacity="0.58"/>
      <line x1="-32" y1="8"  x2="34" y2="8"  stroke="#BF9B50" stroke-width="1.5" opacity="0.32"/>
    </g>
    <g transform="translate(-88,0)">
      <rect x="-37" y="-47" width="74" height="94" fill="url(#p1ckA)" rx="5"/>
      <rect x="-27" y="-38" width="33" height="20" fill="#FAF0DC" rx="4" opacity="0.62"/>
      <line x1="-30" y1="12" x2="32" y2="12" stroke="#C8A860" stroke-width="1.5" opacity="0.32"/>
    </g>
    <g transform="translate(82,0)">
      <rect x="-38" y="-50" width="76" height="100" fill="url(#p1ckB)" rx="5"/>
      <rect x="-28" y="-41" width="31" height="19" fill="#F8ECD8" rx="4" opacity="0.58"/>
      <line x1="-32" y1="7"  x2="34" y2="7"  stroke="#BF9B50" stroke-width="1.5" opacity="0.32"/>
    </g>
    <g transform="translate(250,0)">
      <rect x="-37" y="-48" width="74" height="96" fill="url(#p1ckA)" rx="5"/>
      <rect x="-27" y="-39" width="32" height="20" fill="#FAF0DC" rx="4" opacity="0.62"/>
      <line x1="-30" y1="10" x2="32" y2="10" stroke="#C8A860" stroke-width="1.5" opacity="0.32"/>
    </g>
  </g>

  <!-- SKEWER 3 -->
  <g transform="translate(420,552) rotate(-18)" filter="url(#p1sh)">
    <rect x="-355" y="-8" width="710" height="17" fill="url(#p1stick)" rx="0"/>
    <rect x="-355" y="-8" width="24" height="17" fill="#503018"/>
    <rect x="331"  y="-8" width="24" height="17" fill="#6A4020"/>
    <line x1="-355" y1="1" x2="355" y2="1" stroke="#906835" stroke-width="1" opacity="0.28"/>
    <g transform="translate(-250,0)">
      <rect x="-37" y="-47" width="74" height="94" fill="url(#p1ckA)" rx="5"/>
      <rect x="-27" y="-38" width="34" height="21" fill="#FAF0DC" rx="4" opacity="0.62"/>
      <line x1="-30" y1="11" x2="32" y2="11" stroke="#C8A860" stroke-width="1.5" opacity="0.32"/>
    </g>
    <g transform="translate(-78,0)">
      <rect x="-38" y="-51" width="76" height="102" fill="url(#p1ckB)" rx="5"/>
      <rect x="-28" y="-41" width="30" height="19" fill="#F8ECD8" rx="4" opacity="0.58"/>
      <line x1="-32" y1="7"  x2="34" y2="7"  stroke="#BF9B50" stroke-width="1.5" opacity="0.32"/>
    </g>
    <g transform="translate(92,0)">
      <rect x="-37" y="-47" width="74" height="94" fill="url(#p1ckA)" rx="5"/>
      <rect x="-27" y="-38" width="33" height="20" fill="#FAF0DC" rx="4" opacity="0.62"/>
      <line x1="-30" y1="11" x2="32" y2="11" stroke="#C8A860" stroke-width="1.5" opacity="0.32"/>
    </g>
    <g transform="translate(258,0)">
      <rect x="-38" y="-49" width="76" height="98" fill="url(#p1ckB)" rx="5"/>
      <rect x="-28" y="-40" width="31" height="19" fill="#F8ECD8" rx="4" opacity="0.58"/>
      <line x1="-32" y1="9"  x2="34" y2="9"  stroke="#BF9B50" stroke-width="1.5" opacity="0.32"/>
    </g>
  </g>

  <rect width="800" height="800" fill="url(#p1vig)"/>
</svg>
